/* XPM */
static char *result[] = {
/* columns rows colors chars-per-pixel */
"60 60 94 2 ",
"   c #040505",
".  c #0D0A0A",
"X  c #100B0A",
"o  c #1D0A08",
"O  c #131414",
"+  c #151918",
"@  c #1B1C1C",
"#  c #260907",
"$  c #1D2221",
"%  c #232424",
"&  c #262B2A",
"*  c #2C2E2D",
"=  c #392925",
"-  c #2C3231",
";  c #343434",
":  c #373E3D",
">  c #383E3D",
",  c #4E1711",
"<  c #521C15",
"1  c #682118",
"2  c #77241A",
"3  c #5E2822",
"4  c #762F26",
"5  c #39403F",
"6  c #3C4442",
"7  c #434343",
"8  c #404947",
"9  c #434C4A",
"0  c #494949",
"q  c #49514F",
"w  c #535353",
"e  c #555D5B",
"r  c #5D6563",
"t  c #626262",
"y  c #636A69",
"u  c #767676",
"i  c #AE3727",
"p  c #CF3324",
"a  c #D23626",
"s  c #D53D2C",
"d  c #BF4131",
"f  c #D8412F",
"g  c #D64230",
"h  c #D94331",
"j  c #DB4936",
"k  c #DC4C3A",
"l  c #DD503E",
"z  c #DE5543",
"x  c #DF5946",
"c  c #E05A47",
"v  c #E15D4B",
"b  c #E1604E",
"n  c #E36552",
"m  c #E46956",
"M  c #E56D5B",
"N  c #E6715F",
"B  c #C27C6F",
"V  c #E77562",
"C  c #E87764",
"Z  c #E87966",
"A  c #E97D6B",
"S  c #C58175",
"D  c #EB816E",
"F  c #EB8573",
"G  c #EC8877",
"H  c #EC8B7A",
"J  c #EE907F",
"K  c #7C8381",
"L  c #868686",
"P  c #878D8C",
"I  c #979C9A",
"U  c #9CA1A0",
"Y  c #A7A7A7",
"T  c #ABABAB",
"R  c #B4B4B4",
"E  c #B5B9B8",
"W  c #BCBCBC",
"Q  c #EE9483",
"!  c #EF9887",
"~  c #EC9788",
"^  c #EF9A8A",
"/  c #F09D8D",
"(  c #F1A293",
")  c #F2A798",
"_  c #F3AB9C",
"`  c #F3AFA1",
"'  c #C3C3C3",
"]  c #CBCBCB",
"[  c #D3D3D3",
"{  c #DCDCDC",
"}  c #E3E3E3",
"|  c #ECECEC",
" . c #F4F4F4",
".. c #FDFDFD",
/* pixels */
"| | | | | | | | | | | | | | | | | | | | | | | | | | | | | | | | | | | | | | | | | | | | | | | | | | | | | | | | | | | | ",
"| | | | | | | | | | | | | | | | | | | | | | | | | | | | | | | | | | | | | | | | | | | | | | | | | | | | | | | | | | | | ",
"| | | | | | | | | | | | | | | | | | | | | | | | | | | | | | | | | | | | | | | | | | | | | | | | | | | | | | | | | | | | ",
"| | | | | | | | | | | | | | | | | | | | | | | | | | | | { t * 7 T | | | | | | | | | | | | | | | | | | | | | | | | | | | ",
"| | | | | | | | | | | | | | | | | | | | | | | O V n c l k j h h h h f f h i | | | | | | | | | | | | | | | | | | | | | | ",
"| | | | | | | | | | | | | | | | | | | | > H A V m n c l j j j h h h h h h h h h a | | | | | | | | | | | | | | | | | | | ",
"| | | | | | | | | | | | | | | | | | = G A A Z N m v c k j j h h h h f h f h h h h h h | | | | | | | | | | | | | | | | | ",
"| | | | | | | | | | | | | | | | E H F A A Z V M n v l k j j h h f h h h f h h h f h h f h | | | | | | | | | | | | | | | ",
"| | | | | | | | | | | | | | | ! F F D D A C N n v c l k j h h h f h h h f h f h h f h f h f | | | | | | | | | | | | | | ",
"| | | | | | | | | | | | | | ! F G G G F D V N n c l k j h h h h h h f h f h h h h h h h h f f 3 | | | | | | | | | | | | ",
"| | | | | | | | | | | | } Q G H J J J G D V m b c l k j j h h h h f h h h h h h f h f h f h f f h | | | | | | | | | | | ",
"| | | | | | | | | | | ' F G Q ! ^ ^ ! J F N n x l k j h h h f h h h f f h f h h f h h h f h f f h h | | | | | | | | | | ",
"| | | | | | | | | | | G G H ! / ) ( ( Q F V n x z j j j h h h f h h h h h h f h h h h f h f h f h h f | | | | | | | | | ",
"| | | | | | | | | | ~ F H ^ ( ) _ _ ( Q D N b z l j f h f f h h h h h h h h h h h f h h h f h s f f h 4 | | | | | | | | ",
"| | | | | | | | | Q F H ! / ) _ ` ) ( J A M v l j j j f h h f h h s h h h h h h h h f h h h h f s f f f { | | | | | | | ",
"| | | | | | | | S D F H / ) _ ` _ ) ^ G Z n c l j h f j f f h h h h h h h f h h f h f h f h h h s s f f h | | | | | | | ",
"| | | | | | | | F F G Q ( _ ` ` _ ( ~ D N b z j j s j s h h s h f h f h f h h h f f h h h f h h s s s h g g | | | | | | ",
"| | | | | | | G A F Q / ) _ ` _ ) ^ H C m x z j j j g g h h + 5 > > . h f h h f h h h f h f h f a s s s g j | | | | | | ",
"| | | | | | | A F G ! ( ) ` ` ) ^ Q D M x z k j g h h O : : 5 5 5 6 6 5 5 2 f h h h h f h h g f a s s s s g g | | | | | ",
"| | | | | | G D F G ! ( ) _ ) ( ~ F V n x k j j h h > > 5 9 9 9 9 9 9 9 9 6 > f f f h h f h h p p a s s h g j  .| | | | ",
"| | | | | | D D F H ! ( ) ) ( ! G Z m x z k j h h > > 9 9 9 9 9 9 9 9 9 9 9 9 6 h h g g h h f p p a # % 6 6 6 6 | | | | ",
"| | | | | B D F G H Q / ( ^ ~ G A m x x k j j g 5 5 9 9 9 9 ] ........9 9 9 9 9 7 f , ; 5 5 > 5 > > > 5 6 6 6 6 | | | | ",
"| | | | | F D D F G J Q Q Q G A m x x k j j g > > 9 9 9 L ................9 9 9 9 6 5 5 5 6 6 9 q 6 9 9 e 6 q 6 { | | | ",
"| | | | | D D D D D F G G A Z m b x z j j g i > 9 9 9 | ......T K q ........9 9 9 9 9 9 9 9 9 9 6 9 9 9 6 q 6 6 e | | | ",
"| | | | ; D D D D A A A Z V m b x l k j j g 5 6 9 9 6 ................E .... .9 9 9 9 9 9 9 9 9 q q q 6 q 6 q q q | | | ",
"| | | | G D D A Z Z V N m n v z l j j h h g > 9 9 9 ....................r ....9 9 9 9 9 9 9 9 6 q 6 6 - & u U U u | | | ",
"| | | | D A A A C V M m n c z z k j j h h 5 6 9 9 9 ....y ....................O 9 9 9 9 9 - ] ] ] ] ] ] ' W R T R | | | ",
"| | | | A A Z C V M n v c z k k j h 1 > > 5 6 9 9 9 ....I .................... .9 9 8 ' ] [ { { { { { ] ] W R T U ' | | ",
"| | | | A C N N m n v c z k k j . 5 > 5 9 9 9 9 9 9 ....e .................... .9 9 9 ] [ { { } } } { { ] ' R T T + | | ",
"| | | | C N M m b v c z k j o 5 > 5 9 9 9 9 9 9 9 9 ....W ....................  9 9 9 ] { } } | | | } { ] ' E T T $ | | ",
"| | | | M m n v c z l k d 6 6 6 9 9 9 9 9 9 9 9 9 9 ....................P ....9 9 9 9 [ { | |  . . .| { [ ' E T Y 3 | | ",
"| | | | m b c c z k k 6 6 6 9 9 9 9 9 9 9 9 9 9 9 9 & ................| ......9 9 9 9 { }  . . . . .| } [ ' E R T O | | ",
"| | | | v c l l k 7 6 6 9 q 9 9 9 9 9 9 9 9 9 9 9 9 9 ........I U e ........9 9 9 9 [ } |  . ... . .| } [ ] R R Y * | | ",
"| | | | c l l < 6 6 6 q 9 9 9 9 9 9 9 9 9 - ] 9 9 9 9 9 ..................9 9 9 9 9 { } |  ... ... .| } [ ' W T T | | | ",
"| | | | l j 8 7 6 9 q 9 9 9 9 9 9 9 9 ; ] [ { [ 9 9 9 9 9 9 ..........$ 9 9 9 9 9 [ } |  . ... ... .| } [ ' R T T | | | ",
"| | | | O 6 5 9 q 9 9 9 9 9 9 9 9 7 ] [ { { { { @ 9 9 9 9 9 9 9 9 9 9 9 9 9 9 9 [ } |  . . ..... .| | } [ ' R R R | | | ",
"| | | | ' 7 9 9 9 q 9 9 9 9 9 + ' ] [ { } } | } } 0 9 9 9 9 9 9 9 9 9 9 9 9 9 [ } } |  ... ..... .| } [ ] W R T R | | | ",
"| | | | | 8 q 9 9 9 9 9 9 8 ' ] [ { } } | | |  .| } { 9 9 9 9 9 9 9 9 9 9 8 { { }  . . ....... . .| } [ ] R R T L | | | ",
"| | | | | 7 9 9 9 9 9 9 W ' ] { { } | |  . . . .| | | } { @ 9 9 9 9 9 % { { } |  . . ....... . .| } { ] W R T R | | | | ",
"| | | | |   9 9 9 9 t W ' ] [ { } |  . . ... ... . . .| | } } { } { } } } | |  . . ... ..... .| | { [ ' W R T W | | | | ",
"| | | | | | 9 9 9 R R W ] [ { } | |  ............... . . . .| | | | | | |  . . ......... ... .| } [ ] W R T T t | | | | ",
"| | | | | | 7 Y T T R W ' [ { } |  . ................. . . . . . . . . . ..... ......... . .| } { ] ' W R T R | | | | | ",
"| | | | | | | T T T R W ' ] [ } | |  . . ..................... ... ... ................. .| } { [ ] W R T T ' | | | | | ",
"| | | | | | | W T T R R ' ' [ { } |  . . ......................................... . . . .| { { ] W E R T W | | | | | | ",
"| | | | | | | | R T T R W ' ] [ { } |  . . . ..................................... . .| | } [ ] ' W R T T ; | | | | | | ",
"| | | | | | | | w Y T T R E W ] [ { } }  . . ............................... ... . .| | { { [ ' W R T T [ | | | | | | | ",
"| | | | | | | | | W T T T R W W ] [ { } } | |  . . . ................... ... . . .| } } { ] ' W R T T ] | | | | | | | | ",
"| | | | | | | | | | R T T T R E W ' ] [ { } | | |  . . . . ... . ... . . . . .| } } { [ ] ' W E R T T [ | | | | | | | | ",
"| | | | | | | | | | | E T T T R R W ' ] ] [ { } } | | |  .|  . . . . .| | | } } { [ [ ] ' W R R T Y . | | | | | | | | | ",
"| | | | | | | | | | | | E Y T T T R R ' ' ] [ [ { { } } } | } | | } } } } } { [ [ ] ' W R R T T T X | | | | | | | | | | ",
"| | | | | | | | | | | | | W Y T T T R R W W ' ] ] [ [ { { { { { { { { { [ [ ] ] ] W W R R T T ' @ | | | | | | | | | | | ",
"| | | | | | | | | | | | | | ' T Y T T T R R W W W ' ] ] ] ] [ [ [ ] ] ] ] ' ' W R R R T T T ] | | | | | | | | | | | | | ",
"| | | | | | | | | | | | | | | & ' Y Y Y T T R R E E W W W ' ' ' ' ' ' W W W E R R T T T Y ] | | | | | | | | | | | | | | ",
"| | | | | | | | | | | | | | | | | ' R Y Y Y T T T R R R E E E E R E R E R T T T T Y T W ] | | | | | | | | | | | | | | | ",
"| | | | | | | | | | | | | | | | | | | ' T Y Y T T T T T T R T T R T T T T T T T T W @ | | | | | | | | | | | | | | | | | ",
"| | | | | | | | | | | | | | | | | | | | | w W T T Y Y T Y Y T T T T Y T Y Y E ' | | | | | | | | | | | | | | | | | | | | ",
"| | | | | | | | | | | | | | | | | | | | | | | | 3 E R U U T T T Y Y T R w | | | | | | | | | | | | | | | | | | | | | | | ",
"| | | | | | | | | | | | | | | | | | | | | | | | | | |  .| | | | | | | | | | | | | | | | | | | | | | | | | | | | | | | | ",
"| | | | | | | | | | | | | | | | | | | | | | | | | | | | | | | | | | | | | | | | | | | | | | | | | | | | | | | | | | | | ",
"| | | | | | | | | | | | | | | | | | | | | | | | | | | | | | | | | | | | | | | | | | | | | | | | | | | | | | | | | | | | "
};
