/* XPM */
static char *result[] = {
/* columns rows colors chars-per-pixel */
"60 60 129 2 ",
"   c #B45900",
".  c #B95C00",
"X  c #BD6100",
"o  c #C46700",
"O  c #C76900",
"+  c #C96C01",
"@  c #CE7304",
"#  c #D07806",
"$  c #D17C09",
"%  c #D3830E",
"&  c #D58711",
"*  c #D78B13",
"=  c #D3871B",
"-  c #D4881C",
";  c #DA9317",
":  c #DD961A",
">  c #DE9B1D",
",  c #E09F1F",
"<  c #E3A21E",
"1  c #D48B21",
"2  c #DD9A23",
"3  c #D6912C",
"4  c #DA962C",
"5  c #DC9A2D",
"6  c #D79532",
"7  c #DC9C33",
"8  c #DA9B3A",
"9  c #E3A424",
"0  c #E5A827",
"q  c #E6AD2A",
"w  c #E7B12C",
"e  c #E0A63E",
"r  c #EAB732",
"t  c #EDBC33",
"y  c #EFBF3B",
"u  c #EEC13A",
"i  c #F1C335",
"p  c #F5C639",
"a  c #F6CA3D",
"s  c #F8C83C",
"d  c #E4B044",
"f  c #EDBE47",
"g  c #E8BE55",
"h  c #E2B25D",
"j  c #E1B87D",
"k  c #F2C443",
"l  c #F3CA43",
"z  c #F9CE43",
"x  c #F5C84B",
"c  c #F9D146",
"v  c #F5D24B",
"b  c #FED34C",
"n  c #FBD94D",
"m  c #F4CD53",
"M  c #F1CD59",
"N  c #F6D552",
"B  c #FFD652",
"V  c #FDDA55",
"C  c #F5D25B",
"Z  c #FFDB5B",
"A  c #FDE356",
"S  c #FEE35C",
"D  c #FFEA5E",
"F  c #EDCB65",
"G  c #ECCA6D",
"H  c #F0CC6B",
"J  c #F5D463",
"K  c #F6D965",
"L  c #FFDE62",
"P  c #F3D76B",
"I  c #F6DC6E",
"U  c #FCD96B",
"Y  c #EFD274",
"T  c #EDD07C",
"R  c #F2D772",
"E  c #F7DD73",
"W  c #F4DA7A",
"Q  c #FFE264",
"!  c #FFEA62",
"~  c #FFE46C",
"^  c #FFEA6D",
"/  c #FFE572",
"(  c #FFEA74",
")  c #F7E17B",
"_  c #FFEB7C",
"`  c #FFF074",
"'  c #FFF17B",
"]  c #ECD181",
"[  c #EFD98E",
"{  c #F3DB83",
"}  c #F4DE8B",
"|  c #ECD492",
" . c #EFDB9D",
".. c #F1DF9E",
"X. c #F7E283",
"o. c #F9E282",
"O. c #FFEE83",
"+. c #F7E38C",
"@. c #FEEE89",
"#. c #FFF184",
"$. c #FFF28B",
"%. c #F8E790",
"&. c #F9EB95",
"*. c #F5E59C",
"=. c #F9EB9C",
"-. c #FFF594",
";. c #FFF69B",
":. c #FFF89C",
">. c #F5E9A6",
",. c #F9EFA5",
"<. c #FFF6A3",
"1. c #FFFAA4",
"2. c #FEF6AB",
"3. c #FFFAAC",
"4. c #F7EFB1",
"5. c #F7F0B5",
"6. c #F9F4B3",
"7. c #FFFBB4",
"8. c #F7F2BD",
"9. c #F9F4BA",
"0. c #FFFDBA",
"q. c #F7F4C4",
"w. c #F6F3CB",
"e. c #EEE7D3",
"r. c #ECE5DD",
"t. c #EEEBDF",
"y. c #F2F1D7",
"u. c #ECEAE4",
"i. c #ECECEC",
/* pixels */
"i.i.i.i.i.i.i.i.i.i.i.i.i.i.i.i.i.i.i.i.i.i.i.i.i.i.i.i.i.i.i.i.i.i.i.i.i.i.i.i.i.i.i.i.i.i.i.i.i.i.i.i.i.i.i.i.i.i.i.i.",
"i.i.i.i.i.i.i.i.i.i.i.i.i.i.i.i.i.i.i.i.i.i.i.i.i.i.i.i.i.i.i.i.i.i.i.i.i.i.i.i.i.i.i.i.i.i.i.i.i.i.i.i.i.i.i.i.i.i.i.i.",
"i.i.i.i.i.i.i.i.i.i.i.i.i.i.i.i.i.i.i.i.i.i.i.i.i.i.i.i.i.i.i.i.i.i.i.i.i.i.i.i.i.i.i.i.i.i.i.i.i.i.i.i.i.i.i.i.i.i.i.i.",
"i.i.i.i.i.i.i.i.i.i.i.i.i.i.i.i.i.i.i.i.i.i.i.i.i.i.i. .M M M C { i.i.i.i.i.i.i.i.i.i.i.i.i.i.i.i.i.i.i.i.i.i.i.i.i.i.i.",
"i.i.i.i.i.i.i.i.i.i.i.i.i.i.i.i.i.i.i.i.i.i.e.H 6.w.q.1.:.-.-.-.$.;.>.,.P } i.i.i.i.i.i.i.i.i.i.i.i.i.i.i.i.i.i.i.i.i.i.",
"i.i.i.i.i.i.i.i.i.i.i.i.i.i.i.i.i.i.i.i.] w.1.1.1.1.:.:.:.-.-.$.$.O.#._ _ _ @.{ i.i.i.i.i.i.i.i.i.i.i.i.i.i.i.i.i.i.i.i.",
"i.i.i.i.i.i.i.i.i.i.i.i.i.i.i.i.i.i.T w.1.1.1.1.1.:.:.-.-.-.$.$.O.#._ _ / ( ~ ~ / X.i.i.i.i.i.i.i.i.i.i.i.i.i.i.i.i.i.i.",
"i.i.i.i.i.i.i.i.i.i.i.i.i.i.i.i.| w.1.1.1.1.3.1.:.:.-.-.-.$.$.#.#.O._ ( ( / ~ Q Q L L X.i.i.i.i.i.i.i.i.i.i.i.i.i.i.i.i.",
"i.i.i.i.i.i.i.i.i.i.i.i.i.i.i...3.1.1.1.1.1.1.:.O + @ # % % & * ; > > , ^ ~ Q Q Z Z Z B U >.i.i.i.i.i.i.i.i.i.i.i.i.i.i.",
"i.i.i.i.i.i.i.i.i.i.i.i.i.i.y.1.1.1.1.1.1.X o O > ( _ #.$.$.:.:.1.1.:.:.9 q w S Z Z B B b b %.i.i.i.i.i.i.i.i.i.i.i.i.i.",
"i.i.i.i.i.i.i.i.i.i.i.i.i.1.3.1.1.1.1.  X o Q ^ ( _ O.#.$.:.` 1.1.:.:.:.-.-.r r r B B b b b B &.i.i.i.i.i.i.i.i.i.i.i.i.",
"i.i.i.i.i.i.i.i.i.i.i.i.1.1.1.1.3.1.. X L ~ ~ # _ #.$.-.:.A ` 1.1.:.:.:.-.@ $.$.y y k b B B Z L &.i.i.i.i.i.i.i.i.i.i.i.",
"i.i.i.i.i.i.i.i.i.i.i.1.1.3.1.1.    Z Z Q ~ n ^ $ $.-.-.:.i A 1.:.:.-.-.^ ' #.O._ ( k l V Z L L ~ =.i.i.i.i.i.i.i.i.i.i.",
"i.i.i.i.i.i.i.i.i.i.t.1.1.1.1.  X Z Z ~ ^ ( _ n ^ -.-.:.1.1.1.:.:.-.-.< n #._ _ ( ~ ~ l v Q L ~ / / *.i.i.i.i.i.i.i.i.i.",
"i.i.i.i.i.i.i.i.i.i.1.1.1.3.    Z Z Q / ( _ #.$.$.:.:.1.1.Q ~ ;.-.-.-.$.$.' _ ( ~ ~ Q Q v v ~ / / ( *.i.i.i.i.i.i.i.i.i.",
"i.i.i.i.i.i.i.i.u.1.1.1.1.  X Z L ` ' ( _ ' $.$.:.:.1.1.1.Q m -.-.$.$.#.' _ ( ~ ~ Q ` @ N N N / _ O.O.X.i.i.i.i.i.i.i.i.",
"i.i.i.i.i.i.i.i.w.3.1.1.1.. Z L Q D ` _ #.$.$.-.:.1.1.$.( / _ ( ~ #.#.#._ ( ~ ~ Q a ! ` b b V Z O.O.O.$.W i.i.i.i.i.i.i.",
"i.i.i.i.i.i.i. .1.1.1.1.. Z Z Q ~ ( _ #.$.-.-.1.1.1.Q ~ -._ #._ -.1.1.Z ( ~ ~ Q Z Z p b b B B Z O.#.&.&.2.i.i.i.i.i.i.i.",
"i.i.i.i.i.i.i.8.1.1.1.. X L Q / ( _ O.$.$.:.1.1.Q Q 1.@ -.$.I $.#._ :.:.Q ~ Q Z Z B b b B Z Z L Q @.-.;.;.J i.i.i.i.i.i.",
"i.i.i.i.i.i.[ 1.1.1.1.X L Q ^ ( _ #.$.-.:.:.1._ ~ ( @ -.-.:.E #._ _ _ -.~ Q Z Z B b b B V Z L ~ Q ~ -.;.<.9.i.i.i.i.i.i.",
"i.i.i.i.i.i.q.1.3.1.X Q Q ^ ( _ #.$.-.-.:.1.1./ ( -.-.-.$.1.) ' _ ( ~ $._ Z Z B b b B Z Z L N ( ( Q ;.<.1.2.>.i.i.i.i.i.",
"i.i.i.i.i.[ 1.1.1.1.o ~ ^ ^ ' K $.$.:.:.1.1._ ' $.$.-.$.$.1.) _ ( ~ ~ -.$.B B b b B V L L A ( ' _ ^ <.1.1.3.k i.i.i.i.i.",
"i.i.i.i.i.J 1.1.1.o + ^ ( A ` $.-.-.1.1.1.1.( $.-.' $.$.#.:.E ( ~ ~ Q ;.;.B b b B Z Z L ~ / S 2 O.@.^ 2.7.7.0.i.i.i.i.i.",
"i.i.i.i.i.q.1.1.:.+ / ( ' #.$.-.-.1.1.1.1.:.Q -.1.1._ #._ -.I ~ ~ Q Z B 1.b b B Z Z L U / / _ O.$.-.( 3.7.7.0.i.i.i.i.i.",
"i.i.i.i.i.9.1.:.:.@ ( _ #.$.-.-.1.1.1.:.:.:.-.1.1.:._ ' _ $.K ~ Q Z Z B b b B Z L L U / / O.O.$.-.;.( 7.7.0.0.G i.i.i.i.",
"i.i.i.i.R 1.:.;.:.# _ #.$.-.-.1.1.1.:.:.:.-.$.1.:.:.-.( ( ' J Q Z Z B b b B Z L L ~ / ( O.O.&.&.;.<.-.( 0.0.7.k i.i.i.i.",
"i.i.i.i.C :.:.-.# 2 #.$.-.-.1.1.1.:.:.:.-.-.$._ -.-.$.#._ _ C Z V B b b B Z Z Q U / / O.O.$.-.;.<.1.7._ 0.7.2.5.i.i.i.i.",
"i.i.i.i.N :.:.-.$ #.$.` :.:.1.1.1.:.:.-.-.$.$.#.b $.#._ ( ~ ( V b b b B V Z L U / ( O.@.@.-.;.1._ 7.7._ 7.2.1.8.i.i.i.i.",
"i.i.i.i.-.-.-.$.% $.$.A ` 1.1.:.:.:.:.$.$.$.O._ _ ~ ( ( ~ Q Z V b b B Z Z Q ~ / ( O.O.@.&.;.1.V ` ' 0._ 1.1.;.8.i.i.i.i.",
"i.i.i.i.5.-.$.$.& -.:.i 1.1.:.:.-.-.-.$.$.#._ _ ( ~ ~ Z Q V b b b ~ Z Z Q U / _ O.O.@.;.;.1.2.7.A 0.7.#.1.;.-.4.i.i.i.i.",
"i.i.i.i.2.$.$.$.* -.1.1.1.1.:.-.:.$.$.$.#._ ( ( ~ ~ L Z B b b B Z L ~ L ~ / ( o.@.$.;.;.<.1.7.7.0.7.1._ ;.-.$.,.i.i.i.i.",
"i.i.i.i.:.$.$.#.; 1.1.1.:.:.:.:.$.$.$.#._ _ ( ~ ~ S Z Z b B B L U / ( L / ( O.@.@.&.;.<.2.7.7.0.7.1.;.O.;.$.#.,.i.i.i.i.",
"i.i.i.i.A $.#.' ; 3.1.1.:.:.-.-.$.$.O.' _ ( ~ ~ Z Z Z B b Z f B / _ @.@.L _ @.@.;.=.<.2.7.0.0.7.1.;.$.#.$.#.' &.i.i.i.i.",
"i.i.i.i.N #.O._ : -.:.:.-.-.-.$.#.#._ ( ( ~ ~ S Z V b b B L x Z B @.&.;.<.@ @.;.;.<.2.7.7.0.2.1.;.$.O.#.$._ ` %.i.i.i.i.",
"i.i.i.i.N #._ _ k , :.:.` ^ $.#.#._ _ ( ~ Q Q Z B B b b B E m L U L <.1.7.b -.;.1.2.7.0.0.3.1.( ' ' ( $._ ( ( 2 i.i.i.i.",
"i.i.i.i.Z _ ( ( ( 9 :.i D ` #.#._ ( ( ~ ~ Q Z V B b b B Z _ J ~ / ( L 7.0.7.;.<.2.7.7.0.3.1.t S ` ^ #.' ( ^ Q 2 i.i.i.i.",
"i.i.i.i.i._ / / ^ 0 -.-.i #.#.' _ ( ~ Q L Z 7.~ b b B Z Z @.J / _ O.( 7.1.;.<.2.7.0.0.7.1.;.$.t ( Q $.` ^ Q Q h i.i.i.i.",
"i.i.i.i.i.) ^ ^ ~ w ( $.#.#._ _ ( ~ Q Q Z V ;.3.b B Z L U =.P _ O.O.&.;.-.L 2.7.7.0.3.1.;.$._ ( ~ V #.^ Q S o.i.i.i.i.i.",
"i.i.i.i.i.^ ^ ~ Q Z r #.#._ _ ( ~ Q Q Z V b #.O.B Z L L ~ 1.W O.O.@.@.@.( ~ 7.7.0.7.<.-.$.O.( Q A $.$.Q S Z 5 i.i.i.i.i.",
"i.i.i.i.i.i.~ L Q Z r _ ' ( ( ~ Q Q Z V b b ( o.+ L L / / 7.X.$.-.-.O./ Q @ 0.0.3.<.;.$._ ^ Q S n #.Q Q V V 8 i.i.i.i.i.",
"i.i.i.i.i.i.~ L Z Z V y ( ( ^ ` L Z V b b b Z @.-.L ~ / _ 7.%.$.-.1.^ Z f 0.0.3.<.-.$.' ` ' S N $.$.S V V X.i.i.i.i.i.i.",
"i.i.i.i.i.i.O.Z Z V V u / ~ Q ^ ' B b b b V z ;.<.2._ _ O.1.{ -.0.Q N ;.7.0.3.1.;.$._ a ! ( n c $.S V n v 8 i.i.i.i.i.i.",
"i.i.i.i.i.i.i.L B B b b l Q Z Z B B b b V Z Z L c 0.7.2.;.$._ ~ Z 0.@ 0.0.3.1.-.$._ ( Q a n z $._ V B c { i.i.i.i.i.i.i.",
"i.i.i.i.i.i.i.&.B b b b l v Z V b b b B Z L L / / _ O.O.y ( O.@ 3.7.0.0.3.<.-.$._ ( Q V n a $.$.V V v z 6 i.i.i.i.i.i.i.",
"i.i.i.i.i.i.i.i.%.b B B Z v v B b b B Z ' ~ E / _ O.O.-.;.Z m 1.7.0.0.3.1.;.$._ ( Q A n c p $.V b n z { i.i.i.i.i.i.i.i.",
"i.i.i.i.i.i.i.i.i.U B Z Z L N N b Z Z ! ( ' / / o.@.&.-.;.c k 7.0.7.3.1.-.$.S ` ' @ n a p $.A n n c a j i.i.i.i.i.i.i.i.",
"i.i.i.i.i.i.i.i.i.+.Z Z Q U ~ V V Z L Q D @ _ O.O.-.-.;.1.2.7.0.7.3.1.-.$._ ~ D ` n c s $.V V c c a 3 i.i.i.i.i.i.i.i.i.",
"i.i.i.i.i.i.i.i.i.i.+.L ~ ~ / _ V L L ~ / _ O.#.&.;.` ' 2.7.0.0.^ ' -.$._ ^ Q V n z #.$.V V c c a 1 i.i.i.i.i.i.i.i.i.i.",
"i.i.i.i.i.i.i.i.i.i.i.{ ~ / ( o.O.Q S / _ O.@.-.;.i S ` 7.0.7.3.Q ^ ` ' ( Q V n z $.$.V N n c s - i.i.i.i.i.i.i.i.i.i.i.",
"i.i.i.i.i.i.i.i.i.i.i.i.{ ( _ O.@.@.-.Q ~ O.&.-.<.1.i 7.0.7.3.<.-.n _ ^ Q V n $.$.Z V n n z s - i.i.i.i.i.i.i.i.i.i.i.i.",
"i.i.i.i.i.i.i.i.i.i.i.i.i.T O.#.$.-.&.;.1.^ ^ ( 1.3.7.0.7.3.1.-.$.' ^ Q ^ $.$.' S V V c a s - i.i.i.i.i.i.i.i.i.i.i.i.i.",
"i.i.i.i.i.i.i.i.i.i.i.i.i.i.Y 5.-.-.;.<.<.1.3.( ( _ ' ' ' -.$.#.#.#.#.$.$.~ Q S V V c z l = i.i.i.i.i.i.i.i.i.i.i.i.i.i.",
"i.i.i.i.i.i.i.i.i.i.i.i.i.i.i.i.F ;.<.1.1.3.7.7.0.q.7.-.' #.O.O.#.#._ ( ^ Q S V N n z H r.i.i.i.i.i.i.i.i.i.i.i.i.i.i.i.",
"i.i.i.i.i.i.i.i.i.i.i.i.i.i.i.i.i.g w.1.3.7.7.0.0.7.3.1.1.;.-.$.O._ ( ! Q A Z n x J = i.i.i.i.i.i.i.i.i.i.i.i.i.i.i.i.i.",
"i.i.i.i.i.i.i.i.i.i.i.i.i.i.i.i.i.i.i.g Y w.0.0.7.3.1.<.-.-.$.O._ ( ^ Q S V b W 1 i.i.i.i.i.i.i.i.i.i.i.i.i.i.i.i.i.i.i.",
"i.i.i.i.i.i.i.i.i.i.i.i.i.i.i.i.i.i.i.i.i.i.d >.w.3.:.-.-.$.O._ ^ ^ Q *...6 r.i.i.i.i.i.i.i.i.i.i.i.i.i.i.i.i.i.i.i.i.i.",
"i.i.i.i.i.i.i.i.i.i.i.i.i.i.i.i.i.i.i.i.i.i.i.i.i.r.e 7 5 5 5 5 4 4 8 i.i.i.i.i.i.i.i.i.i.i.i.i.i.i.i.i.i.i.i.i.i.i.i.i.",
"i.i.i.i.i.i.i.i.i.i.i.i.i.i.i.i.i.i.i.i.i.i.i.i.i.i.i.i.i.i.i.i.i.i.i.i.i.i.i.i.i.i.i.i.i.i.i.i.i.i.i.i.i.i.i.i.i.i.i.i.",
"i.i.i.i.i.i.i.i.i.i.i.i.i.i.i.i.i.i.i.i.i.i.i.i.i.i.i.i.i.i.i.i.i.i.i.i.i.i.i.i.i.i.i.i.i.i.i.i.i.i.i.i.i.i.i.i.i.i.i.i.",
"i.i.i.i.i.i.i.i.i.i.i.i.i.i.i.i.i.i.i.i.i.i.i.i.i.i.i.i.i.i.i.i.i.i.i.i.i.i.i.i.i.i.i.i.i.i.i.i.i.i.i.i.i.i.i.i.i.i.i.i."
};
