/* XPM */
static char *result[] = {
/* columns rows colors chars-per-pixel */
"60 60 195 2 ",
"   c black",
".  c #010100",
"X  c #010101",
"o  c #020202",
"O  c gray1",
"+  c #040300",
"@  c #040301",
"#  c #050401",
"$  c #060401",
"%  c #040404",
"&  c gray2",
"*  c #070704",
"=  c #060606",
"-  c #0A0101",
";  c #090801",
":  c #0B0901",
">  c #090805",
",  c #130908",
"<  c #131002",
"1  c #161302",
"2  c #121109",
"3  c #1E1E1E",
"4  c #3F0606",
"5  c #262104",
"6  c #332C06",
"7  c #3E2A09",
"8  c #383007",
"9  c #222222",
"0  c gray15",
"q  c #272727",
"w  c #323232",
"e  c gray20",
"r  c #373737",
"t  c gray23",
"y  c #41171B",
"u  c #700B0A",
"i  c #691308",
"p  c #413807",
"a  c #624416",
"s  c #694B19",
"d  c #744E11",
"f  c #685B1A",
"g  c #6C5F18",
"h  c gray29",
"j  c gray34",
"k  c #811E08",
"l  c #811F09",
"z  c #83220D",
"x  c #872915",
"c  c #892E19",
"v  c #8A2F1A",
"b  c #8C3016",
"n  c #8C331F",
"m  c #A81729",
"M  c #D22C17",
"N  c #F62D13",
"B  c #F5371E",
"V  c #F33921",
"C  c #F63921",
"Z  c #92641B",
"A  c #8D7B18",
"S  c #AE7A27",
"D  c #A67628",
"F  c #B27F2E",
"G  c #EC545F",
"H  c #ED5460",
"J  c #AA9215",
"K  c #B09816",
"L  c #BEA317",
"P  c #A59025",
"I  c #C8AB1C",
"U  c #D5B81A",
"Y  c #DBBC1B",
"T  c #CC933A",
"R  c #E19722",
"E  c #E19723",
"W  c #E29921",
"Q  c #E39C22",
"!  c #E29926",
"~  c #E19928",
"^  c #E19A2B",
"/  c #E29C2D",
"(  c #E29C2E",
")  c #E29D2F",
"_  c #E29D30",
"`  c #E19E32",
"'  c #E29E33",
"]  c #E29E34",
"[  c #E29F35",
"{  c #E6A521",
"}  c #E7A721",
"|  c #E9AB21",
" . c #EDB720",
".. c #E3A23D",
"X. c #E2A33F",
"o. c #EDB838",
"O. c #E3C41C",
"+. c #E6C51D",
"@. c #E7C71D",
"#. c #F5CB1F",
"$. c #F6CE1F",
"%. c #F6CF1F",
"&. c #F7D11F",
"*. c #F4D21E",
"=. c #F5D31E",
"-. c #F8D41F",
";. c #F9D41F",
":. c #F8D51F",
">. c #F9D51F",
",. c #F9D61F",
"<. c #F9D71F",
"1. c #F2C320",
"2. c #F4CA20",
"3. c #F6CE20",
"4. c #F6CF20",
"5. c #F6CF21",
"6. c #F7CF21",
"7. c #F7D120",
"8. c #F7D021",
"9. c #F7D220",
"0. c #F7D022",
"q. c #F7D123",
"w. c #F6D024",
"e. c #F7D124",
"r. c #F7D224",
"t. c #F8D221",
"y. c #F8D423",
"u. c #F9D523",
"i. c #F9D723",
"p. c #F8D224",
"a. c #F8D225",
"s. c #F8D325",
"d. c #F8D226",
"f. c #F8D326",
"g. c #F8D327",
"h. c #F9D424",
"j. c #F9D725",
"k. c #F9D526",
"l. c #F8D427",
"z. c #F8D329",
"x. c #F8D428",
"c. c #F9D428",
"v. c #F9D528",
"b. c #F9D529",
"n. c #F9D628",
"m. c #F8D729",
"M. c #F9D62A",
"N. c #F9D62B",
"B. c #F9D72B",
"V. c #FAD72A",
"C. c #FAD72B",
"Z. c #F9D62D",
"A. c #FAD72C",
"S. c #F8D82D",
"D. c #FAD82D",
"F. c #F7D533",
"G. c #F6D335",
"H. c #F6D534",
"J. c #F8D535",
"K. c #F8D932",
"L. c #F8DA37",
"P. c #F1D43A",
"I. c #F7D639",
"U. c #F5D53B",
"Y. c #F7D63F",
"T. c #F7D93B",
"R. c #F7DA3C",
"E. c #F8DA39",
"W. c #E2A340",
"Q. c #E3A543",
"!. c #E3A94E",
"~. c #E3AC54",
"^. c #F6D640",
"/. c #F7D740",
"(. c #F6D642",
"). c #F6D643",
"_. c #F6D743",
"`. c #F6D744",
"'. c #F6D745",
"]. c #F6D646",
"[. c #F6D747",
"{. c #F7DA41",
"}. c #F7DA44",
"|. c #F6DB4A",
" X c #F8DB4C",
".X c gray52",
"XX c gray64",
"oX c gray83",
"OX c #DADADA",
"+X c gainsboro",
"@X c gray87",
"#X c #E4E4E4",
"$X c #ECECEC",
"%X c gray93",
"&X c white",
/* pixels */
"$X$X$X$X$X$X$X$X$X$X$X$X$X$X$X$X$X$X$X$X$X$X$X$X$X$X$X$X$X$X$X$X$X$X$X$X$X3 $X$X$X$X$X$X$X$X$X$X$X$X$X$X$X$X$X$X$X$X$X$X",
"$X$X$X$X$X$X$X$X$X$X$X$X$X$X$X$X$X$X$X$X$X$X$X$X$X$X$X$X$X$X$X$X$X$X$X$X$XX % $X$X$X$X$X$X$X$X$X$X$X$X$X$X$X$X$X$X$X$X$X",
"$X$X$X$X$X$X$X$X$X$X$X$X$X$X$X$X$X$X$X$X$X$X$X$X$X$X$X$X$X$X$X$X$X$X$X$XX     $X$X$X$X$X$X$X$X$X$X$X$X$X$X$X$X$X$X$X$X$X",
"$X$X$X$X$X$X$X$X$X$X$X$X$X$X$X$X$X$X$X$X$X$X$X$X$X$X$X$X$X$X$X$X$X$X$X$X      $X$X$X$X$X$X$X$X$X$X$X$X$X$X$X$X$X$X$X$X$X",
"o o O o $X$X$X$X$X$X$X$X$X$X$X$X$X$X$X$X$X$X$X$X$X$X$X$X$X$X$X$X$X$X$Xo       $X$X$X$X$X$X$X$X$X$X$X$X$X$X$X$X$X$X$X$X$X",
"$Xo X X X X X $X$X$X$X$X$X$X$X$X$X$X$X$X$X$X$X$X$X$X$X$X$X$X$X$X$X$X$XK.      $X$X$X$X$X$X$X$X$X$X$X$X$X$X$X$X$X$X$X$X$X",
"$X$Xo X       [.|.t $X$X$X$X$X$X$X$X$X$X$X$X$X$X$X$X$X$X$X$X$X$X$X$Xo a.-.    $X$X$X$X$X$X$X$X$X$X$X$X$X$X$X$X$X$X$X$X$X",
"$X$X$XX       a.r.b.R.oX$X$X$X$X$X$X$X$X$X$X$X$X$X$X$X$X$X$X$X$X$X$Xl.v.b.<.  $X$X$X$X$X$X$X$X$X$X$X$X$X$X$X$X$X$X$X$X$X",
"$X$X$X$XX X   a.q.0.0.q.}.$X$X$X$X$X$X$X$X$X$X$X$X$X$X$X$X$X$X$X$X$Xp.N.N.M.  $X$X$X$X$X$X$X$X$X$X$X$X$X$X$X$X$X$X$X$X$X",
"$X$X$X$X$XX   x.b.C.C.b.x.'.# $X$X$X$X$X$X$X$X$X$X$X$X$X$X$X$X$X$Xo v.0.4.8.X $X$X$X$X$X$X$X$X$X$X$X$X$X$X$X$X$X$X$X$X$X",
"$X$X$X$X$X$X  ~.R 5.A.b.x.f.e.L.$X$X$X$X$X$X$X$X$X$X$X$X$X$X$X$X$Xf.e.0.4.N.@X$X$X$X$X$X$X$X$X$X$X$X$X$X$X$X$X$X$X$X$X$X",
"$X$X$X$X$X$X$X$X!.! R q.a.f.x.b. X= $X$X$X$X$X$X$X$X$X$X$X$X$X$X$Xf.x.b.N.M.$X$X$X$X$X$X$X$X$X$X$X$X$X$X$X$X$X$X$X$X$X$X",
"$X$X$X$X$X$X$X$X$X  Q.R  .f.a.e.q.q.  $X$X$X$X$X$X$X$X$X$X$X$X$X$Xf.a.e.q.Q $X$X$X$X$X$X$X$X$X$X$X$X$X$X$X$X$X$X$X$X$X$X",
"$X$X$X$X$X$X$X$X$X$X$XS R R g.l.c.x.<.,.f.q.p.e.t.,.f $X$X$X$X$X$Xf.g.l.c.' $X$X$X$X$X$X$X$X$X$X$X$X$X$X$X$X$X$X$X$X$X$X",
"$X$X$X$X$X$X$X$X$X$X$X$X$X$ R R a.s.f.f.f.f.g.g.f.f.f.0.<.X $X$X  f.f.8.a.& $X$X$X$X$X$X$X$X$X$X$X$X$X$X$X$X$X$X$X$X$X$X",
"$X$X$X$X$X$X$X$X$X$X$X$X$X$X$X$X$.s.f.f.f.f.s.a.f.f.f.f.f.s.;.$X  f.v.f./ $X$X$X$X$X$X$X$X$X$X$X$X$X$X$X$X$X$X$X$X$X$X$X",
"$X$X$X$X$X$X$X$X$X$X$X$X$X$X$Xa.$.x.l.l.f.l.l.r.a.a.f.g.l.c.c.M.  f.g.l.W.$X$X$X$X$X$X$X$X$X$X$X$X$X$X$X$X$X$X$X$X$X$X$X",
"$X$X$X$X$X$X$X$X$X$X$X$X$X$X. e.q.B.x.g.6.x.b.b.v.l.f.a.r.q.q.r.a.  l.R o $X$X$X$X$X$X$X$X$X$X$X$X$X$X$X$X$X$X$X$X$X$X$X",
"$X$X$X$X$X$X$X$X$X$X$X$X$X$X3.N.8.5.q.g.a.e.0.8.q.p.f.l.b.M.M.b.l.f.p.] $X$X$X$X$X$X$X$X$X$X$X$X$X$X$X$X$X$X$X$X$X$X$X$X",
"$X$X$X$X$X$X$X$X$X$X$X$X$X  v.M.  &X&Xa.l.b.N.A.M.v.f.p.q.5.5.q.p.f.v.F $X$X$X$X$X$X$X$X$X$X$X$X$X$X$X$X$X$X$X$X$X$X$X$X",
"$X$X$X$X$X$X$X$X$X$X$X$X$Xf.e.O.      a.a.q.8.4.0.e.f.x.b.C.C.b.x.f.e.$X$X$X$X$X$X$X$X$X$X$X$X$X$X$X$X$X$X$X$X$X$X$X$X$X",
"$X$X$X$X$X$X$X$X$X$X$X$Xr f.x.8.      g.a.b.M.N.b.x.f.a.q.0.0.q.a.f.p.$X$X$X$X$X$X$X$X$X$X$X$X$X$X$X$X$X$X$X$X$X$X$X$X$X",
"$X$X$X$X$X$X$X$X$X$X$X$XN i a.e.$.q.x.g.g.x.b.D.e.a.f.l.c.    0.a.f.a.$X$X$X$X$X$X$X$X$X$X$X$X$X$X$X$X$X$X$X$X$X$X$X$X$X",
"$X$X$X$X$X$X$X$X$X$X$XV N N a.a.r.p.a.f.f.l.q.&.l.g.f.s.  &X&X  s.f.g.$X$X$X$X$X$X$X$X$X$X$X$X$X$X$X$X$X$X$X$X$X$X$X$X$X",
"$X$X$X$X$X$X$X$X$X$X$XC N N f.f.g.g.f.  1   4 j.f.f.f.f.5       f.f.X $X$X$X$X$X$X$X$X$X$X$X$X$X$X$X$X$X$X$X$X$X$X$X$X$X",
"$X$X$X$X$X$X$X$X$X$X$XB N N f.f.g.g.b.u     - u   f.f.f.f.    -.r.f.XX$X$X$X$X$X$X$X$X$X$X$X$X$X$X$X$X$X$X$X$X$X$X$X$X$X",
"$X$X$X$X$X$X$X$X$X$X$XN N   a.a.D.x.a.m m m m m   u <.s.a.r.c.l.g.f.$X$X$X$X$X$X$X$X$X$X$X$X$X$X$X$X$X$X$X$X$X$X$X$X$X$X",
"$X$X$X$X$X$X$X$X$X$X$XM   f.v.e.b.b.x.H H H H H m u f.x.r.q.q.r.a.f.$X$X$X$X$X$X$X$X$X$X$X$X$X$X$X$X$X$X$X$X$X$X$X$X$X$X",
"$X$X$X$X$X$X$X$X$X$X$X$Xa.f.p.q.8.0.e.H H H H H H 9.f.l.b.M.M.b.N N $X%X6 <.G.).].$X$X$X$X$X$X$X$X$X$X$X$X$X$X$X$X$X$X$X",
"$X$X$X$X$X$X$X$X$X$X$X$Xp.f.v.M.A.8.q.G H H H H   v.f.p.q.5.4.N N N <.M.A.N.b.l.d.T.$X$X$X$X$X$X$X$X$X$X$X$X$X$X$X$X$X$X",
"$X$X$X$X$X$X$X$X$X$X$X$X9 f.e.M.A.N.b.  H H H H 0.e.f.x.b.C.N N N   e.0.4.8.q.a.l.Z.$X$X$X$X$X$X$X$X$X$X$X$X$X$X$X$X$X$X",
"$X$X$X$X$X$X$X$X  <.V.n.k.<.O.< 8.0.e.a.H H y 8.b.x.f.a.q.%.N N N f.x.b.N.M.v.g.a.  $X$X$X$X$X$X$X$X$X$X$X$X$X$X$X$X$X$X",
"$X$X$X$X$X$X$X^.c.b.b.0.a.f.a.e.q.  x.g.<.<.B.$.e.a.f.l.c.b.N N K f.a.e.q.q.p.l.$X$X$X$X$X$X$X$X$X$X$X$X$X$X$X$X$X$X$X$X",
"$X$X$X$X$X$X{.z.l.c.c.M.s.f.g.l.c.x.=.I f.l.x.c.N.e.f.s.a.r.U <.s.f.g.l.c.x.l.<.f.q.3.n.,.>.Y X $X$X$X$X$X$X$X$X$X$X$X$X",
"$X$X$X$X$X$X_.f.f.A.g.f.f.f.f.f.a.s.f.: f.f.s.a.f.f.f.q.f.  s.f.f.f.f.f.a.h.8 f.f.f.g.g.f.f.f.x.f.4.<.*.  $X$X$X$X$X$X$X",
"$X$X$X$X$X$X(.x.f.g.g.f.f.f.f.f.a.s.f.  R R R R f.f.+.,.M.g.g.f.f.f.f.8.R   f.f.f.f.g.g.f.e.f.f.f.g.g.4.f.f.i.X $X$X$X$X",
"$X$X$X$X$X$XU.s.a.r.r.a.s.f.g.l.c.x.l.<.<.1.4.r.a.a.f.s.a.r.r.a.s.f.R R     l.f.f.a.p.$.l.g.f.s.a.r.r.a.s.f.a.a.r.<.o $X",
"$X$X$X$X$X$X$XX.E R R R | f.a.e.W R J <.g.x.b.b.v.l.f.a.c.b.b.c.l.R R   $X@.p.R R p.q.q.e.a.f.l.c.b.b.c.a.f.l.v.b.b.x.O ",
"$X$X$X$X$X$X$X$X` R R R R R R R p 0.q.g.a.e.0.8.q.p.f.l.b.M.0.R R R e $X$X5.v.R R R R N.b.x.f.a.q.0.M.b.l.f.p.q.8.0.X $X",
"$X$X$X$X$X$X$X$X$X$XL + ; <.e.M.A.N.b.l.l.b.N.A.M.v.f.p.q.5.R R R $X$X$X$X8.q.R R R R R R e.f.x.q.5.5.q.p.f.v.M.A.o $X$X",
"$X$X$X$X$X$X$X$X$XX 5.q.p.f.e.0.4.8.q.a.l.b.B.4.0.e.f.x.b.C.R   $X$X$X$Xj N.{ R R R R R R R 2.x.b.C.C.b.x.f.e.0.0 $X$X$X",
"$X$X$X$X$X$X$X$X$XV.M.b.a.f.x.b.N.M.v.g.a.e.0.8.N.x.f.a.q.R # $X$X$X$X$X  0.R R R R R R R R R R q.0.0.q.a.f.I.$X$X$X$X$X",
"$X$X$X$X$X$X$X$X$Xq.b.c.l.f.a.e.q.q.p.s.g.x.b.b.v.l.f.a.c.b.  $X$X$X$X$X:.b.R R R $X$X$XX R R R R 1.b.c.l./.$X$X$X$X$X$X",
"$X$X$X$X$X$X$X$Xo r.r.a.s.f.g.l.c.x.l.f.f.a.p.r.a.a.f.s.a.r.  $Xs <.g   r.p.R R $X$X$X$X$X$X$Xw Z R R M.Y.$X$X$X$X$X$X$X",
"$X$X$X$X$X$X$X$Xf.g.g.f.f.f.f.f.a.s.f.f.f.f.g.g.f.f.f.f.f.g.  $XX R y.f.a.5.R   $X$X$X$X$X$X$X$X$X$X$X  $X$X$X$X$X$X$X$X",
"$X$X$X$X$X$X$X#Xf.g.g.f.f.f.f.f.a.s.f.f.f.b.s.a.f.f.f.f.f.g.  $XX R R R a.R R $X$X$X$X$X$X$X$X$X$X$X$X$X$X$X$X$X$X$X$X$X",
"$X$X$X$X$X$X$XP a.r.r.a.s.f.g.l.c.x.l.a.f.l.x.c.l.g.f.s.a.A.  $X$XR R 7 ( ) h $X$X$X$X$X$X$X$X$X$X$X$X$X$X$X$X$X$X$X$X$X",
"$X$X$X$X$X$X$Xw.c.b.b.c.l.f.a.e.q.5.x.g.s.p.q.q.e.a.f.x.r.q.7.$X$Xb x $X$X$X$X$X$X$X$X$X$X$X$X$X$X$X$X$X$X$X$X$X$X$X$X$X",
"$X$X$X$X$X$X  a.q.0.0.q.a.f.x.6.8.0.e.a.g.v.M.N.b.p.f.l.b.M.4.k X z v $X$X$X$X$X$X$X$X$X$X$X$X$X$X$X$X$X$X$X$X$X$X$X$X$X",
"$X$X$X$X$X$XH.x.b.C.C.b.x.$.v.M.A.N.b.l.a.q.8.A.M.v.f.p.q.5.5.  l k c $X$X$X$X$X$X$X$X$X$X$X$X$X$X$X$X$X$X$X$X$X$X$X$X$X",
"$X$X$X$X$X$XJ.p.q.5.5.b.x.f.e.0.4.8.q.a.l.q.8.4.0.e.f.x.b.C.C.A OX, n $X$X$X$X$X$X$X$X$X$X$X$X$X$X$X$X$X$X$X$X$X$X$X$X$X",
"$X$X$X$X$X$XF.l.b.0.0.q.a.f.x.b.N.M.v.a.g.v.M.N.b.x.f.a.q.0.0.q.$X$X$X$X$X$X$X$X$X$X$X$X$X$X$X$X$X$X$X$X$X$X$X$X$X$X$X$X",
"$X$X$X$X$X$XF.l.c.b.b.c.l.f.a.e.q.b.x.g.s.p.q.q.e.a.f.l.c.b.b.c.$X$X$X$X$X$X$X$X$X$X$X$X$X$X$X$X$X$X$X$X$X$X$X$X$X$X$X$X",
"$X$X$X$X$X$X`.R R R R q.s.f.g.a.r.p.a.R R R R R R R o.s.a.r.r.a.$X$X$X$X$X$X$X$X$X$X$X$X$X$X$X$X$X$X$X$X$X$X$X$X$X$X$X$X",
"$X$X$X$X$X$X$X[ R R R R R R R R R R R R R R R R R R R R R g.g.f.$X$X$X$X$X$X$X$X$X$X$X$X$X$X$X$X$X$X$X$X$X$X$X$X$X$X$X$X",
"$X$X$X$X$X$X% m.  R R R R ( ) _ ..a         R R R R R R R R #.X $X$X$X$X$X$X$X$X$X$X$X$X$X$X$X$X$X$X$X$X$X$X$X$X$X$X$X$X",
"$X$X$X$X% o J.s.R E ! ~ X $X$X$X$X$X$X$X$X.XX D ^ ~ R R R R d @ $X$X$X$X$X$X$X$X$X$X$X$X$X$X$X$X$X$X$X$X$X$X$X$X$X$X$X$X",
"$X$X$X& > E.S.T   q $X$X$X$X$X$X$X$X$X$X$X$X$X$X$X$XX R R R } <.u.2 $X$X$X$X$X$X$X$X$X$X$X$X$X$X$X$X$X$X$X$X$X$X$X$X$X$X",
"$X$X$X$X$X$X$X$X$X$X$X$X$X$X$X$X$X$X$X$X$X$X$X$X$X$X$X$X+X* M.b.a.X o $X$X$X$X$X$X$X$X$X$X$X$X$X$X$X$X$X$X$X$X$X$X$X$X$X",
"$X$X$X$X$X$X$X$X$X$X$X$X$X$X$X$X$X$X$X$X$X$X$X$X$X$X$X$X$X$X$X$X$XX <.P.$X$X$X$X$X$X$X$X$X$X$X$X$X$X$X$X$X$X$X$X$X$X$X$X"
};
