/* XPM */
static char *result[] = {
/* columns rows colors chars-per-pixel */
"60 60 164 2 ",
"   c #1B0E0B",
".  c #2F140E",
"X  c #33150E",
"o  c #3A170E",
"O  c #3C180E",
"+  c #341812",
"@  c #441A0E",
"#  c #4C1C0E",
"$  c #531D0E",
"%  c #5B1F0E",
"&  c #55200F",
"*  c #5E200E",
"=  c #5B2310",
"-  c #582819",
";  c #64220E",
":  c #68220F",
">  c #652510",
",  c #6C2411",
"<  c #602814",
"1  c #6C2913",
"2  c #732614",
"3  c #782715",
"4  c #732B15",
"5  c #7A2A17",
"6  c #7D2D18",
"7  c #6E331B",
"8  c #743117",
"9  c #753219",
"0  c #7C331A",
"q  c #7C391E",
"w  c #6E3725",
"e  c #7D3C21",
"r  c #77432F",
"t  c #70534B",
"y  c #76615D",
"u  c #822E19",
"i  c #84341B",
"p  c #8C341D",
"a  c #853A1D",
"s  c #8B3D1E",
"d  c #92351E",
"f  c #913B1F",
"g  c #853E21",
"h  c #8B3F20",
"j  c #953C20",
"k  c #9C3C21",
"l  c #A03D22",
"z  c #854125",
"x  c #8D4122",
"c  c #8C4629",
"v  c #8E4B2D",
"b  c #924322",
"n  c #9C4222",
"m  c #9E4B26",
"M  c #904728",
"N  c #934B2B",
"B  c #9E4F2C",
"V  c #944F32",
"C  c #9A4F32",
"Z  c #965134",
"A  c #9A5234",
"S  c #97593F",
"D  c #99593E",
"F  c #A34323",
"G  c #AA4524",
"H  c #A54A25",
"J  c #AD4A25",
"K  c #A34D28",
"L  c #AE4F28",
"P  c #B34D26",
"I  c #A4522D",
"U  c #AC522A",
"Y  c #B55227",
"T  c #BA5427",
"R  c #B3552C",
"E  c #BB5629",
"W  c #B6582E",
"Q  c #BC5A2C",
"!  c #AD5934",
"~  c #A65A38",
"^  c #AE5938",
"/  c #B55B33",
"(  c #BA5E34",
")  c #B75F38",
"_  c #BC6136",
"`  c #B76039",
"'  c #BB643C",
"]  c #BF693F",
"[  c #C15E2D",
"{  c #C6612F",
"}  c #C36334",
"|  c #C96533",
" . c #CB6937",
".. c #C2663A",
"X. c #C4693D",
"o. c #CB6C3B",
"O. c #995D43",
"+. c #846052",
"@. c #B46643",
"#. c #BB6741",
"$. c #BD6942",
"%. c #BC6D49",
"&. c #BC7251",
"*. c #C46C42",
"=. c #C67146",
"-. c #CC7143",
";. c #C2734E",
":. c #CB764B",
">. c #CF784B",
",. c #D37544",
"<. c #D37A4C",
"1. c #DA7E4D",
"2. c #C27553",
"3. c #CC7B52",
"4. c #C67B58",
"5. c #C37C5C",
"6. c #C07F63",
"7. c #B78975",
"8. c #DD814F",
"9. c #D78152",
"0. c #DC8454",
"q. c #D3855D",
"w. c #DA8759",
"e. c #DE8A5B",
"r. c #E08655",
"t. c #E28857",
"y. c #E18C5C",
"u. c #C38060",
"i. c #C9886B",
"p. c #DF8D60",
"a. c #D58D68",
"s. c #DE9064",
"d. c #DD936B",
"f. c #CA8E71",
"g. c #D49474",
"h. c #D4987A",
"j. c #E18F61",
"k. c #E29062",
"l. c #E59A6F",
"z. c #A58E87",
"x. c #B2968E",
"c. c #BBA299",
"v. c #CA9C88",
"b. c #D59C80",
"n. c #D8A68D",
"m. c #D6A792",
"M. c #DAAB93",
"N. c #E3A787",
"B. c #E3B194",
"V. c #E4B69C",
"C. c #DEB9A7",
"Z. c #C4BBB9",
"A. c #E3BAA4",
"S. c #DFC3B7",
"D. c #E5C2AE",
"F. c #D5CAC4",
"G. c #DBD5D3",
"H. c #E9DBD4",
"J. c #E4DFDC",
"K. c #E7E2DF",
"L. c #E7E5E5",
"P. c #EAE5E3",
"I. c #EBE9E7",
"U. c #ECECEC",
/* pixels */
"U.U.U.U.U.U.U.U.U.U.U.U.U.U.U.U.U.U.U.U.U.U.U.U.U.U.U.U.U.U.U.U.U.U.U.U.U.U.U.U.U.U.U.U.U.U.U.U.U.U.U.U.U.U.U.U.U.U.U.U.",
"U.U.U.U.U.U.U.U.U.U.U.U.U.U.U.U.U.U.U.U.U.U.U.U.U.U.U.U.U.U.U.U.U.U.U.U.U.U.U.U.U.U.U.U.U.U.U.U.U.U.U.U.U.U.U.U.U.U.U.U.",
"U.U.U.U.U.U.U.U.U.U.U.U.U.U.U.U.U.U.U.U.U.U.U.U.U.U.U.U.U.U.U.U.U.U.U.U.U.U.U.U.U.U.U.U.U.U.U.U.U.U.U.U.U.U.U.U.U.U.U.U.",
"U.U.U.U.U.U.U.U.U.U.U.U.U.U.U.U.U.U.U.U.U.U.U.U.U.U.U.U.U.U.U.U.U.U.U.U.U.U.U.U.U.U.U.U.U.U.U.U.U.U.U.U.U.U.U.U.U.U.U.U.",
"U.U.U.U.U.U.U.U.U.U.U.U.U.U.U.U.U.U.U.U.U.U.U.U.U.U.U.U.U.U.U.U.U.U.U.U.U.U.U.U.U.U.U.U.U.U.U.U.U.U.U.U.U.U.U.U.U.U.U.U.",
"U.U.U.U.U.U.U.U.U.U.U.U.U.U.U.U.U.U.U.U.U.U.U.U.U.U.U.U.U.U.U.U.U.U.U.U.U.U.U.U.U.U.U.U.U.U.U.U.U.U.U.U.U.U.U.U.U.U.U.U.",
"U.U.U.U.U.U.U.U.U.U.U.U.U.U.U.U.U.U.U.U.U.U.U.U.U.U.U.U.U.U.U.U.U.U.U.U.U.U.U.U.U.U.U.U.U.U.U.U.U.U.U.U.U.U.U.U.U.U.U.U.",
"U.U.U.U.U.U.U.U.U.U.U.U.U.U.U.U.U.U.U.U.U.U.U.U.U.U.U.U.U.U.U.U.U.U.U.U.U.U.U.U.U.U.U.U.U.U.U.U.U.U.U.U.U.U.U.U.U.U.U.U.",
"U.U.U.U.U.U.U.U.U.U.U.U.U.U.U.U.U.U.U.U.U.U.U.U.U.U.U.U.U.U.U.U.U.U.U.U.U.U.U.U.U.U.U.U.U.U.U.U.U.U.U.U.U.U.U.U.U.U.U.U.",
"U.U.U.U.U.U.U.U.U.U.U.U.U.U.U.U.U.U.U.U.U.U.U.A.w.1.w.9.w.A.U.U.U.U.U.U.U.U.U.U.U.U.U.U.U.U.U.U.U.U.U.U.U.U.U.U.U.U.U.U.",
"U.U.U.U.U.U.U.U.U.U.U.U.U.U.U.U.I.l.1.w.k.<.0.8.,.<.8.0.8.e.8.U.U.U.U.U.U.U.U.U.U.U.U.U.U.U.U.U.U.U.U.U.U.U.U.U.U.U.U.U.",
"U.U.U.U.U.U.U.U.U.U.U.U.U.U.0.9.r.1.r.-.9.e.e.w.0.1.<.9.w.9.t.0.w.U.U.U.U.U.U.U.U.U.U.U.U.U.U.U.U.U.U.U.U.U.U.U.U.U.U.U.",
"U.U.U.U.U.U.U.U.U.U.U.U.U.7.a I 0.y.l.r.e.] t.8.8.t.r.1.1.0.0.,.e.e.d.U.U.U.U.U.U.U.U.U.U.U.U.U.U.U.U.U.U.U.U.U.U.U.U.U.",
"U.U.U.U.U.U.U.U.U.U.U.U.U.F.A 4 g y.w.y.e.w.e.e.t.1.8.1.r.r.0.8.e.t.e.s.B.U.U.U.U.U.U.U.U.U.U.U.U.U.U.U.U.U.U.U.U.U.U.U.",
"U.U.U.U.U.U.U.U.U.U.U.U.U.U.N N s z ( r.e.l.k.9.y.y.0.r.e.9.y.r.e.w.0.e.<.V.U.U.U.U.U.U.U.U.U.U.U.U.U.U.U.U.U.U.U.U.U.U.",
"U.U.U.U.U.U.U.U.U.U.U.U.U.U.V a c s g a t.1.0.t.e.,.r.1.r.t.1.1.8.e.e.e.-.e.N.A.U.U.U.U.U.U.U.U.U.U.U.U.U.U.U.U.U.U.U.U.",
"U.U.U.U.U.U.U.U.U.U.U.U.U.U.N N a a s o M 9.0.<.0.t.0.r.0.0.{ 8.8.w.t.y.e.j.s.e.h.D.U.U.U.U.U.U.U.U.U.U.U.U.U.U.U.U.U.U.",
"U.U.U.U.U.U.U.U.U.U.U.U.U.U.c 0 g a 0 4 f s D t.e.e.y.e.0.} 9.e.t.,.8.e.e.s.e.e.w.d.V.H.U.U.U.U.U.U.U.U.U.U.U.U.U.U.U.U.",
"U.U.U.U.U.U.U.U.U.U.U.U.U.U.A x 0 0 s & s s x s y.9.y.o.e.0.0.e.0.e.-.0.e.s.k.0.y.e.0.h.n.U.U.U.U.U.U.U.U.U.U.U.U.U.U.U.",
"U.U.U.U.U.U.U.U.U.U.U.U.U.U.v 0 ; 0 1 = a s s & x 1 9.k.e.p.p.y.0.e.e.9.e.e.w.$./ ( *._ i.U.U.U.U.U.U.U.U.U.U.U.U.U.U.U.",
"U.U.U.U.U.U.U.U.U.U.U.U.U.U.K.4 @ 6 4 4 : a s i 0 a A & o.9.e.e.p.' I R U ( f ' ( ) ' / R b.M.C.U.U.U.U.U.U.U.U.U.U.U.U.",
"U.U.U.U.U.U.U.U.U.U.U.U.v.~ I H & ; 3 1 1 6 a i a Z s c * I R ! W ) ( ) ` ) ( ` U ) U ] ) 8.<.n.U.U.U.U.U.U.U.U.U.U.U.U.",
"U.U.U.U.U.U.U.U.U.U.U.U.5.` / m I i # : * i 4 ; i f 0 4 z L / R ` j / _ ..U _ F _ ( R H _ >.-.g.U.U.U.U.U.U.U.U.U.U.U.U.",
"U.U.U.U.U.U.U.U.U.U.U.U.4.%.] / K I s , * 3 i i a b x 0 ; R R ! m / K Q U ( E F ` ` U R H <.-.<.f.U.U.U.U.U.U.U.U.U.U.U.",
"U.U.U.U.U.U.U.U.U.U.U.U.u.W B $./ U K b # $ 6 i s $ i * * _ f K ( / R ( j ] W ( ) ` ` ( R >.>.] b.U.U.U.U.U.U.U.U.U.U.U.",
"U.U.U.U.U.U.U.U.U.U.U.U.9.X.=._ ] ` I n f q u 0 3 0 i i s a W ( ( W Y / W / W W U E i ( ] >.>. .^ U.U.U.U.U.U.U.U.U.U.U.",
"U.U.U.U.U.U.U.U.U.U.U.U.0 s s i h 8 p i 0 8 a 0 i s 6 8 m f p W / W i H W / P R W W ] ` ( F H H K U.U.U.U.U.U.U.U.U.U.U.",
"U.U.U.U.U.U.U.U.U.U.U.U.g s a 0 0 0 4 4 > 1 : 1 a a a s 0 / W U W / R H ' ' J H $.' X./ } n H H K U.U.U.U.U.U.U.U.U.U.U.",
"U.U.U.U.U.U.U.U.U.U.U.U.a s i 6 0 6 0 4 4 1 1 : > 1 a 0 a ) R U / K W ' K ( ) F ` #.I n n F n n H m.U.U.U.U.U.U.U.U.U.U.",
"U.U.U.U.U.U.U.U.U.u.! u.i p i i i 4 6 4 1 1 : 1 , , ; = 7 ( ( ! ) U ' m 3 5 p f f n n n F m H F H Q } ] U.U.U.U.U.U.U.U.",
"U.U.U.U.U.U.U.P.%.E J R 6 a i 4 6 6 6 4 , 2 4 , 1 : , % q ) ( f 2 4 5 6 i a d f p k n n n l F H H T Q Y o.*.m.U.U.U.U.U.",
"U.U.U.U.U.U.%.} W J Y f 4 u u u 4 6 4 : : , , , * : 2 , , , , 2 4 5 6 u i p i f s f j n b l n n F G Q Y [ F o.a.) U.U.U.",
"U.U.U.U.4.4.Q ( Y Q H n 4 u u 3 3 3 2 2 : : , , : : : : 2 : 2 2 3 2 3 u u u d p f k k k k f k k k Q E Q Q } } o.} X.6.U.",
"U.U.S.3.o. .} { f Y J H : 6 3 5 2 3 : 2 3 2 : , , , 2 2 : : 2 2 2 2 3 u 5 u u d k f k d f d p f s P Q Q } } | } [ W 4.U.",
"U.h.q.-.|  .| J Q Q Y H ; 3 u 3 3 3 3 u 2 3 3 3 2 2 , 2 3 3 3 3 6 3 u i p p n d f k F f 1 u i < 5 Y T P [ T ) $.$.' ;.U.",
"U.O.c x ,.X.| |  . .f { T J G l F l l f d d f d u 3 u u , 2 3 u 3 2 u 3 2 i 5 i > o @ ; F j P j T E ( W ' 3.' ( ' ' ;.U.",
"U.A c N x x x i f ,.o.{ [ [ P P P P P P P f H F l d d d p u u u u 3 3 3 p 3 i p P   O $ ; u P T T #.' #.$.$.' $.' ' ;.U.",
"U.O.N b x s x x x x b ! l Y E  .{ T [ P T P T Y l J l l d p u u i 3 3 u 2 u i Q F X @ # ; ; * #.R $.$.) ' ' ' ' ' $.2.U.",
"U.C c x x g c x M s b b n b b b s f Q { { P n E F P P F G l d d p p p d d i Q Y P . O @ $ % ; $.' #.$.#.' ' ' ' $.' 2.U.",
"U.V b g x x b h s b s x s f b b h b h s H n E | G T T G P G G l l J l H F { E Y G X @ @ X > $ ' #.#.#.' ..) ' ' ' $.2.U.",
"U.V x s x c x a a h f b b b s f s b s h b b x x b b U { { Q E L P P F .._ E J T k X @ $ ; % 2 $.' ' / $.' ' ' ) ' %.5.U.",
"U.Z s g z x x s s s s x f b x b b x s x b b M x b b b b b b b E } Q W :.} } T P l X @ $ > @ 2 ' ' ' ' ` ' ) ' $.f.G.U.U.",
"U.S z a z s g g a s b h b x x b x x x a h M M b b b N N b s x x x Y ( :.X.} Y J F o O = : , ; ' ` #.) ' ( $.%.U.U.U.U.U.",
"U.U.+.8 q q 0 q a s a b s x s f x a h x h c M x x x b x b b x M x a.X.....( F P F y + # = 2 4 ' ` ' %.@.7.U.U.U.U.U.U.U.",
"U.U.U.U.U.I.t 8 q e a a a x a a h x a c x b b x x b x b h x x x z :.X.X.} G Y W x.G.J.Z.- w e %.%.&.I.U.U.U.U.U.U.U.U.U.",
"U.U.U.U.U.U.U.U.U.L.7 8 0 a a s h h g x M x x x x x M b b V z x x ( *.X.' P / c.L.U.U.U.U.L.z.Z.U.U.U.U.U.U.U.U.U.U.U.U.",
"U.U.U.U.U.U.U.U.U.U.U.U.I.K.> a e e z x h x x x b x b x x x x x b *.' _ W / G.U.U.U.U.U.U.U.U.U.U.U.U.U.U.U.U.U.U.U.U.U.",
"U.U.U.U.U.U.U.U.U.U.U.U.U.U.U.U.I.F.- e e z z x N x x x x x M h M =.*..._ G.U.U.U.U.U.U.U.U.U.U.U.U.U.U.U.U.U.U.U.U.U.U.",
"U.U.U.U.U.U.U.U.U.U.U.U.U.U.U.U.U.U.U.U.K.G.9 q z N M N M z x x x X.! ( J.U.U.U.U.U.U.U.U.U.U.U.U.U.U.U.U.U.U.U.U.U.U.U.",
"U.U.U.U.U.U.U.U.U.U.U.U.U.U.U.U.U.U.U.U.U.U.U.P.K.G.w v z g M b x 4.` K.U.U.U.U.U.U.U.U.U.U.U.U.U.U.U.U.U.U.U.U.U.U.U.U.",
"U.U.U.U.U.U.U.U.U.U.U.U.U.U.U.U.U.U.U.U.U.U.U.U.U.U.U.I.K.K.r r z X.I.U.U.U.U.U.U.U.U.U.U.U.U.U.U.U.U.U.U.U.U.U.U.U.U.U.",
"U.U.U.U.U.U.U.U.U.U.U.U.U.U.U.U.U.U.U.U.U.U.U.U.U.U.U.U.U.U.U.U.U.U.U.U.U.U.U.U.U.U.U.U.U.U.U.U.U.U.U.U.U.U.U.U.U.U.U.U.",
"U.U.U.U.U.U.U.U.U.U.U.U.U.U.U.U.U.U.U.U.U.U.U.U.U.U.U.U.U.U.U.U.U.U.U.U.U.U.U.U.U.U.U.U.U.U.U.U.U.U.U.U.U.U.U.U.U.U.U.U.",
"U.U.U.U.U.U.U.U.U.U.U.U.U.U.U.U.U.U.U.U.U.U.U.U.U.U.U.U.U.U.U.U.U.U.U.U.U.U.U.U.U.U.U.U.U.U.U.U.U.U.U.U.U.U.U.U.U.U.U.U.",
"U.U.U.U.U.U.U.U.U.U.U.U.U.U.U.U.U.U.U.U.U.U.U.U.U.U.U.U.U.U.U.U.U.U.U.U.U.U.U.U.U.U.U.U.U.U.U.U.U.U.U.U.U.U.U.U.U.U.U.U.",
"U.U.U.U.U.U.U.U.U.U.U.U.U.U.U.U.U.U.U.U.U.U.U.U.U.U.U.U.U.U.U.U.U.U.U.U.U.U.U.U.U.U.U.U.U.U.U.U.U.U.U.U.U.U.U.U.U.U.U.U.",
"U.U.U.U.U.U.U.U.U.U.U.U.U.U.U.U.U.U.U.U.U.U.U.U.U.U.U.U.U.U.U.U.U.U.U.U.U.U.U.U.U.U.U.U.U.U.U.U.U.U.U.U.U.U.U.U.U.U.U.U.",
"U.U.U.U.U.U.U.U.U.U.U.U.U.U.U.U.U.U.U.U.U.U.U.U.U.U.U.U.U.U.U.U.U.U.U.U.U.U.U.U.U.U.U.U.U.U.U.U.U.U.U.U.U.U.U.U.U.U.U.U.",
"U.U.U.U.U.U.U.U.U.U.U.U.U.U.U.U.U.U.U.U.U.U.U.U.U.U.U.U.U.U.U.U.U.U.U.U.U.U.U.U.U.U.U.U.U.U.U.U.U.U.U.U.U.U.U.U.U.U.U.U.",
"U.U.U.U.U.U.U.U.U.U.U.U.U.U.U.U.U.U.U.U.U.U.U.U.U.U.U.U.U.U.U.U.U.U.U.U.U.U.U.U.U.U.U.U.U.U.U.U.U.U.U.U.U.U.U.U.U.U.U.U."
};
